<svg width="846" height="750" viewBox="0 0 846 750" fill="none" xmlns="http://www.w3.org/2000/svg">
  <path d="M736 0C796.751 0 846 49.2487 846 110C846 170.751 796.751 220 736 220C728.316 220 720.817 219.211 713.577 217.712L640.157 315.787C649.593 332.015 655 350.876 655 371C655 431.751 605.751 481 545 481C535.98 481 527.214 479.914 518.824 477.866L433.151 592.31C440.103 606.737 444 622.913 444 640C444 700.751 394.751 750 334 750C273.249 750 224 700.751 224 640C224 627.729 226.009 615.928 229.717 604.906L150.625 528.253C138.056 533.251 124.349 536 110 536C49.2487 536 0 486.751 0 426C0 365.249 49.2487 316 110 316C170.751 316 220 365.249 220 426C220 440.787 217.081 454.891 211.79 467.771L286.902 540.566C301.179 533.792 317.147 530 334 530C345.973 530 357.499 531.913 368.289 535.45L449.939 426.38C440.443 410.115 435 391.193 435 371C435 310.249 484.249 261 545 261C554.087 261 562.917 262.102 571.363 264.18L642.903 168.615C632.197 151.646 626 131.547 626 110C626 49.2487 675.249 0 736 0Z" fill="url(#paint0_linear_6_67)"/>
  <defs>
    <linearGradient id="paint0_linear_6_67" x1="98.0497" y1="555.804" x2="800.441" y2="161.226" gradientUnits="userSpaceOnUse">
      <stop stop-color="#5BCEFA"/>
      <stop offset="0.557692" stop-color="#B8B8E8"/>
      <stop offset="1" stop-color="#F5A9B8"/>
    </linearGradient>
  </defs>
</svg>
